<svg width="58" height="58" viewBox="0 0 58 58" fill="none" xmlns="http://www.w3.org/2000/svg">
<g clip-path="url(#clip0)">
<path d="M11.2954 0.853516C5.53877 0.853516 0.903564 5.48872 0.903564 11.2453V47.3739C0.903564 53.1305 5.53877 57.7657 11.2954 57.7657H30.8767V35.5166H24.9934V27.5062H30.8767V20.6625C30.8767 15.2857 34.3529 10.349 42.3605 10.349C45.6027 10.349 48.0002 10.6602 48.0002 10.6602L47.8116 18.1406C47.8116 18.1406 45.3665 18.1175 42.6984 18.1175C39.8107 18.1175 39.3477 19.448 39.3477 21.6568V27.5063H48.041L47.6622 35.5166H39.3477V57.7658H47.4239C53.1805 57.7658 57.8157 53.1306 57.8157 47.3739V11.2454C57.8157 5.48878 53.1805 0.853573 47.4239 0.853573H11.2953L11.2954 0.853516Z" fill="white"/>
</g>
<defs>
<clipPath id="clip0">
<rect width="56.9121" height="56.9121" fill="white" transform="translate(0.903564 0.853516)"/>
</clipPath>
</defs>
</svg>
