<svg width="181" height="66" viewBox="0 0 181 66" fill="none" xmlns="http://www.w3.org/2000/svg">
<path d="M0.251831 27.4688C0.251831 21.9459 4.72898 17.4688 10.2518 17.4688H90.5309C96.0538 17.4688 100.531 21.9459 100.531 27.4687V48.2383C100.531 53.7611 96.0538 58.2383 90.5309 58.2383H10.2518C4.72899 58.2383 0.251831 53.7611 0.251831 48.2383V27.4688Z" fill="#CDCDCD"/>
<path fill-rule="evenodd" clip-rule="evenodd" d="M0.251831 6.91014L4.43013 8.44668C8.60842 10.0564 16.965 13.2026 25.3216 12.1783C33.6782 11.0807 42.0348 5.81261 50.3914 5.30043C58.748 4.78825 67.1045 8.95886 75.4611 8.95886C83.8177 8.95886 97.049 0.730363 100.531 8.23706V11.3141V29.007H96.3526C92.1743 29.007 83.8177 29.007 75.4611 29.007C67.1045 29.007 58.748 29.007 50.3914 29.007C42.0348 29.007 33.6782 29.007 25.3216 29.007C16.965 29.007 8.60842 29.007 4.43013 29.007H0.251831V6.91014Z" fill="#CDCDCD"/>
<path d="M38.8516 25.7852H33.625V40H30.1094V25.7852H24.9531V22.9375H38.8516V25.7852ZM46.0234 40C45.8672 39.6953 45.7539 39.3164 45.6836 38.8633C44.8633 39.7773 43.7969 40.2344 42.4844 40.2344C41.2422 40.2344 40.2109 39.875 39.3906 39.1562C38.5781 38.4375 38.1719 37.5312 38.1719 36.4375C38.1719 35.0938 38.668 34.0625 39.6602 33.3438C40.6602 32.625 42.1016 32.2617 43.9844 32.2539H45.543V31.5273C45.543 30.9414 45.3906 30.4727 45.0859 30.1211C44.7891 29.7695 44.3164 29.5938 43.668 29.5938C43.0977 29.5938 42.6484 29.7305 42.3203 30.0039C42 30.2773 41.8398 30.6523 41.8398 31.1289H38.4531C38.4531 30.3945 38.6797 29.7148 39.1328 29.0898C39.5859 28.4648 40.2266 27.9766 41.0547 27.625C41.8828 27.2656 42.8125 27.0859 43.8438 27.0859C45.4062 27.0859 46.6445 27.4805 47.5586 28.2695C48.4805 29.0508 48.9414 30.1523 48.9414 31.5742V37.0703C48.9492 38.2734 49.1172 39.1836 49.4453 39.8008V40H46.0234ZM43.2227 37.6445C43.7227 37.6445 44.1836 37.5352 44.6055 37.3164C45.0273 37.0898 45.3398 36.7891 45.543 36.4141V34.2344H44.2773C42.582 34.2344 41.6797 34.8203 41.5703 35.9922L41.5586 36.1914C41.5586 36.6133 41.707 36.9609 42.0039 37.2344C42.3008 37.5078 42.707 37.6445 43.2227 37.6445ZM54.6602 27.3203L54.7656 28.7852C55.6719 27.6523 56.8867 27.0859 58.4102 27.0859C59.7539 27.0859 60.7539 27.4805 61.4102 28.2695C62.0664 29.0586 62.4023 30.2383 62.418 31.8086V40H59.0312V31.8906C59.0312 31.1719 58.875 30.6523 58.5625 30.332C58.25 30.0039 57.7305 29.8398 57.0039 29.8398C56.0508 29.8398 55.3359 30.2461 54.8594 31.0586V40H51.4727V27.3203H54.6602ZM69.6016 34.9141L68.3828 36.1328V40H64.9961V22H68.3828V31.9727L69.0391 31.1289L72.2852 27.3203H76.3516L71.7695 32.6055L76.75 40H72.8594L69.6016 34.9141Z" fill="black" fill-opacity="0.89"/>
<path d="M124.188 38.8438C123.555 39.6016 122.66 40.1914 121.504 40.6133C120.348 41.0273 119.066 41.2344 117.66 41.2344C116.184 41.2344 114.887 40.9141 113.77 40.2734C112.66 39.625 111.801 38.6875 111.191 37.4609C110.59 36.2344 110.281 34.793 110.266 33.1367V31.9766C110.266 30.2734 110.551 28.8008 111.121 27.5586C111.699 26.3086 112.527 25.3555 113.605 24.6992C114.691 24.0352 115.961 23.7031 117.414 23.7031C119.438 23.7031 121.02 24.1875 122.16 25.1562C123.301 26.1172 123.977 27.5195 124.188 29.3633H120.766C120.609 28.3867 120.262 27.6719 119.723 27.2188C119.191 26.7656 118.457 26.5391 117.52 26.5391C116.324 26.5391 115.414 26.9883 114.789 27.8867C114.164 28.7852 113.848 30.1211 113.84 31.8945V32.9844C113.84 34.7734 114.18 36.125 114.859 37.0391C115.539 37.9531 116.535 38.4102 117.848 38.4102C119.168 38.4102 120.109 38.1289 120.672 37.5664V34.625H117.473V32.0352H124.188V38.8438ZM134.418 39.7109C133.582 40.7266 132.426 41.2344 130.949 41.2344C129.59 41.2344 128.551 40.8438 127.832 40.0625C127.121 39.2812 126.758 38.1367 126.742 36.6289V28.3203H130.129V36.5117C130.129 37.832 130.73 38.4922 131.934 38.4922C133.082 38.4922 133.871 38.0938 134.301 37.2969V28.3203H137.699V41H134.512L134.418 39.7109ZM143.828 41H140.43V28.3203H143.828V41ZM140.23 25.0391C140.23 24.5312 140.398 24.1133 140.734 23.7852C141.078 23.457 141.543 23.293 142.129 23.293C142.707 23.293 143.168 23.457 143.512 23.7852C143.855 24.1133 144.027 24.5312 144.027 25.0391C144.027 25.5547 143.852 25.9766 143.5 26.3047C143.156 26.6328 142.699 26.7969 142.129 26.7969C141.559 26.7969 141.098 26.6328 140.746 26.3047C140.402 25.9766 140.23 25.5547 140.23 25.0391ZM146.102 34.5664C146.102 32.5898 146.543 31.0156 147.426 29.8438C148.316 28.6719 149.531 28.0859 151.07 28.0859C152.305 28.0859 153.324 28.5469 154.129 29.4688V23H157.527V41H154.469L154.305 39.6523C153.461 40.707 152.375 41.2344 151.047 41.2344C149.555 41.2344 148.355 40.6484 147.449 39.4766C146.551 38.2969 146.102 36.6602 146.102 34.5664ZM149.488 34.8125C149.488 36 149.695 36.9102 150.109 37.543C150.523 38.1758 151.125 38.4922 151.914 38.4922C152.961 38.4922 153.699 38.0508 154.129 37.168V32.1641C153.707 31.2812 152.977 30.8398 151.938 30.8398C150.305 30.8398 149.488 32.1641 149.488 34.8125ZM165.988 41.2344C164.129 41.2344 162.613 40.6641 161.441 39.5234C160.277 38.3828 159.695 36.8633 159.695 34.9648V34.6367C159.695 33.3633 159.941 32.2266 160.434 31.2266C160.926 30.2188 161.621 29.4453 162.52 28.9062C163.426 28.3594 164.457 28.0859 165.613 28.0859C167.348 28.0859 168.711 28.6328 169.703 29.7266C170.703 30.8203 171.203 32.3711 171.203 34.3789V35.7617H163.129C163.238 36.5898 163.566 37.2539 164.113 37.7539C164.668 38.2539 165.367 38.5039 166.211 38.5039C167.516 38.5039 168.535 38.0312 169.27 37.0859L170.934 38.9492C170.426 39.668 169.738 40.2305 168.871 40.6367C168.004 41.0352 167.043 41.2344 165.988 41.2344ZM165.602 30.8281C164.93 30.8281 164.383 31.0547 163.961 31.5078C163.547 31.9609 163.281 32.6094 163.164 33.4531H167.875V33.1836C167.859 32.4336 167.656 31.8555 167.266 31.4492C166.875 31.0352 166.32 30.8281 165.602 30.8281Z" fill="#CDCDCD"/>
</svg>
