<svg width="100" height="100" viewBox="0 0 100 100" fill="none" xmlns="http://www.w3.org/2000/svg">
<path fill-rule="evenodd" clip-rule="evenodd" d="M50 4.16602C24.6875 4.16602 4.16667 24.6868 4.16667 49.9993C4.16667 75.3118 24.6875 95.8327 50 95.8327C75.3125 95.8327 95.8333 75.3118 95.8333 49.9993C95.8333 24.6868 75.3125 4.16602 50 4.16602ZM36.2792 59.1952C35.4933 59.9542 34.4408 60.3741 33.3483 60.3647C32.2558 60.3552 31.2108 59.917 30.4383 59.1444C29.6657 58.3719 29.2275 57.3268 29.218 56.2344C29.2085 55.1419 29.6285 54.0894 30.3875 53.3035L47.0542 36.6368C47.8355 35.8557 48.8952 35.4169 50 35.4169C51.1049 35.4169 52.1645 35.8557 52.9458 36.6368L69.6125 53.3035C70.3715 54.0894 70.7915 55.1419 70.782 56.2344C70.7725 57.3268 70.3343 58.3719 69.5617 59.1444C68.7892 59.917 67.7442 60.3552 66.6517 60.3647C65.5592 60.3741 64.5067 59.9542 63.7208 59.1952L50 45.4743L36.2792 59.1952Z" fill="#ca4747" fill-opacity="0.5"/>
</svg>
