<svg width="70" height="70" viewBox="0 0 70 70" fill="none" xmlns="http://www.w3.org/2000/svg">
<path fill-rule="evenodd" clip-rule="evenodd" d="M34.6656 6.51562C26.8449 6.51562 25.8659 6.55018 22.7934 6.68839C19.7297 6.82949 17.6363 7.31612 15.8049 8.02735C13.8829 8.74966 12.1415 9.88269 10.7025 11.3474C9.23787 12.7865 8.10484 14.5278 7.38246 16.4498C6.67122 18.2812 6.18459 20.3746 6.0435 23.4383C5.9024 26.5108 5.87073 27.4898 5.87073 35.3105C5.87073 43.1311 5.9024 44.1101 6.0435 47.1826C6.18459 50.2463 6.67122 52.3397 7.38246 54.1711C8.10493 56.0931 9.23794 57.8344 10.7025 59.2735C12.1416 60.7381 13.8829 61.8711 15.8049 62.5936C17.6363 63.3048 19.7297 63.7914 22.7934 63.9325C25.8659 64.0707 26.8449 64.1053 34.6656 64.1053C42.4862 64.1053 43.4653 64.0707 46.5377 63.9325C49.6014 63.7914 51.6948 63.3048 53.5262 62.5936C55.4482 61.8712 57.1895 60.7381 58.6286 59.2735C60.0932 57.8344 61.2263 56.0931 61.9487 54.1711C62.6599 52.3397 63.1465 50.2463 63.2876 47.1826C63.4258 44.1101 63.4604 43.1311 63.4604 35.3105C63.4604 27.4898 63.4258 26.5108 63.2876 23.4383C63.1465 20.3746 62.6599 18.2812 61.9487 16.4498C61.2263 14.5278 60.0932 12.7865 58.6286 11.3474C57.1896 9.88269 55.4483 8.74966 53.5262 8.02735C51.6948 7.31612 49.6014 6.82949 46.5377 6.68839C43.4653 6.55018 42.4862 6.51562 34.6656 6.51562ZM34.6656 11.7045C42.3538 11.7045 43.2637 11.7332 46.2987 11.8715C49.109 12.001 50.6323 12.4675 51.6488 12.862C52.9906 13.3861 53.9523 14.0109 54.9602 15.0159C55.968 16.0237 56.5899 16.9854 57.114 18.3273C57.5056 19.3437 57.9778 20.867 58.1045 23.6745C58.2428 26.7123 58.2716 27.6194 58.2716 35.3105C58.2716 42.9987 58.2428 43.9086 58.1045 46.9436C57.975 49.7539 57.5056 51.2772 57.114 52.2936C56.6524 53.5444 55.9164 54.6759 54.9602 55.605C53.9523 56.6129 52.9906 57.2348 51.6488 57.7589C50.6323 58.1505 49.109 58.6227 46.3015 58.7494C43.2666 58.8877 42.3567 58.9165 34.6656 58.9165C26.9773 58.9165 26.0645 58.8877 23.0324 58.7494C20.2221 58.6199 18.6988 58.1505 17.6824 57.7589C16.4315 57.2974 15.2999 56.5614 14.371 55.605C13.4146 54.6761 12.6786 53.5445 12.2171 52.2936C11.8226 51.2772 11.3533 49.7539 11.2266 46.9464C11.0884 43.9086 11.0596 43.0016 11.0596 35.3105C11.0596 27.6222 11.0884 26.7123 11.2266 23.6773C11.3561 20.867 11.8226 19.3437 12.2171 18.3273C12.7412 16.9854 13.366 16.0237 14.371 15.0159C15.3788 14.008 16.3405 13.3861 17.6824 12.862C18.6988 12.4675 20.2221 11.9982 23.0296 11.8715C26.0674 11.7332 26.9745 11.7045 34.6656 11.7045ZM34.6656 44.9078C32.1202 44.9078 29.6791 43.8966 27.8792 42.0968C26.0794 40.2969 25.0682 37.8558 25.0682 35.3105C25.0682 32.7651 26.0794 30.324 27.8792 28.5241C29.6791 26.7243 32.1202 25.7131 34.6656 25.7131C37.2109 25.7131 39.652 26.7243 41.4519 28.5241C43.2517 30.324 44.2629 32.7651 44.2629 35.3105C44.2629 37.8558 43.2517 40.2969 41.4519 42.0968C39.652 43.8966 37.2109 44.9078 34.6656 44.9078ZM34.6656 20.5243C32.7238 20.5243 30.8011 20.9068 29.0071 21.6498C27.2132 22.3929 25.5832 23.482 24.2102 24.8551C22.8372 26.2281 21.748 27.8581 21.0049 29.652C20.2619 31.446 19.8794 33.3687 19.8794 35.3105C19.8794 37.2522 20.2619 39.1749 21.0049 40.9689C21.748 42.7628 22.8372 44.3928 24.2102 45.7658C25.5832 47.1389 27.2132 48.228 29.0071 48.9711C30.8011 49.7141 32.7238 50.0966 34.6656 50.0966C38.5871 50.0966 42.348 48.5388 45.1209 45.7658C47.8939 42.9929 49.4517 39.232 49.4517 35.3105C49.4517 31.3889 47.8939 27.628 45.1209 24.8551C42.348 22.0821 38.5871 20.5243 34.6656 20.5243ZM53.4916 19.9398C53.4916 20.3935 53.4022 20.8429 53.2286 21.2621C53.0549 21.6813 52.8004 22.0622 52.4796 22.3831C52.1587 22.704 51.7778 22.9585 51.3586 23.1321C50.9393 23.3058 50.49 23.3952 50.0362 23.3952C49.5825 23.3952 49.1331 23.3058 48.7139 23.1321C48.2947 22.9585 47.9138 22.704 47.5929 22.3831C47.2721 22.0622 47.0175 21.6813 46.8439 21.2621C46.6702 20.8429 46.5809 20.3935 46.5809 19.9398C46.5809 19.0234 46.9449 18.1445 47.5929 17.4965C48.2409 16.8484 49.1198 16.4844 50.0362 16.4844C50.9527 16.4844 51.8315 16.8484 52.4796 17.4965C53.1276 18.1445 53.4916 19.0234 53.4916 19.9398Z" fill="white"/>
</svg>
