<svg width="212" height="86" viewBox="0 0 212 86" fill="none" xmlns="http://www.w3.org/2000/svg">
<path d="M0 33.2317C0 27.7088 4.47715 23.2317 10 23.2317H94.3048C99.8276 23.2317 104.305 27.7088 104.305 33.2317V66.3099C104.305 71.8328 99.8277 76.3099 94.3048 76.3099H10C4.47717 76.3099 0 71.8328 0 66.3099V33.2317Z" fill="#CA4747"/>
<path fill-rule="evenodd" clip-rule="evenodd" d="M0 9.48639L4.34603 11.4868C8.69207 13.5824 17.3841 17.6784 26.0762 16.3448C34.7683 14.916 43.4603 8.05756 52.1524 7.39076C60.8445 6.72397 69.5365 12.1536 78.2286 12.1536C86.9207 12.1536 100.683 1.44112 104.305 11.2139V15.2198V38.2537H99.9588C95.6127 38.2537 86.9207 38.2537 78.2286 38.2537C69.5365 38.2537 60.8445 38.2537 52.1524 38.2537C43.4603 38.2537 34.7683 38.2537 26.0762 38.2537C17.3841 38.2537 8.69207 38.2537 4.34603 38.2537H0V9.48639Z" fill="#CA4747"/>
<path d="M34.5273 33.6777H26.6875V55H21.4141V33.6777H13.6797V29.4062H34.5273V33.6777ZM45.2852 55C45.0508 54.543 44.8809 53.9746 44.7754 53.2949C43.5449 54.666 41.9453 55.3516 39.9766 55.3516C38.1133 55.3516 36.5664 54.8125 35.3359 53.7344C34.1172 52.6562 33.5078 51.2969 33.5078 49.6562C33.5078 47.6406 34.252 46.0938 35.7402 45.0156C37.2402 43.9375 39.4023 43.3926 42.2266 43.3809H44.5645V42.291C44.5645 41.4121 44.3359 40.709 43.8789 40.1816C43.4336 39.6543 42.7246 39.3906 41.752 39.3906C40.8965 39.3906 40.2227 39.5957 39.7305 40.0059C39.25 40.416 39.0098 40.9785 39.0098 41.6934H33.9297C33.9297 40.5918 34.2695 39.5723 34.9492 38.6348C35.6289 37.6973 36.5898 36.9648 37.832 36.4375C39.0742 35.8984 40.4688 35.6289 42.0156 35.6289C44.3594 35.6289 46.2168 36.2207 47.5879 37.4043C48.9707 38.5762 49.6621 40.2285 49.6621 42.3613V50.6055C49.6738 52.4102 49.9258 53.7754 50.418 54.7012V55H45.2852ZM41.084 51.4668C41.834 51.4668 42.5254 51.3027 43.1582 50.9746C43.791 50.6348 44.2598 50.1836 44.5645 49.6211V46.3516H42.666C40.123 46.3516 38.7695 47.2305 38.6055 48.9883L38.5879 49.2871C38.5879 49.9199 38.8105 50.4414 39.2559 50.8516C39.7012 51.2617 40.3105 51.4668 41.084 51.4668ZM58.2402 35.9805L58.3984 38.1777C59.7578 36.4785 61.5801 35.6289 63.8652 35.6289C65.8809 35.6289 67.3809 36.2207 68.3652 37.4043C69.3496 38.5879 69.8535 40.3574 69.877 42.7129V55H64.7969V42.8359C64.7969 41.7578 64.5625 40.9785 64.0938 40.498C63.625 40.0059 62.8457 39.7598 61.7559 39.7598C60.3262 39.7598 59.2539 40.3691 58.5391 41.5879V55H53.459V35.9805H58.2402ZM80.6523 47.3711L78.8242 49.1992V55H73.7441V28H78.8242V42.959L79.8086 41.6934L84.6777 35.9805H90.7773L83.9043 43.9082L91.375 55H85.5391L80.6523 47.3711Z" fill="black"/>
<path d="M133.531 51.7656C132.582 52.9023 131.24 53.7871 129.506 54.4199C127.771 55.041 125.85 55.3516 123.74 55.3516C121.525 55.3516 119.58 54.8711 117.904 53.9102C116.24 52.9375 114.951 51.5312 114.037 49.6914C113.135 47.8516 112.672 45.6895 112.648 43.2051V41.4648C112.648 38.9102 113.076 36.7012 113.932 34.8379C114.799 32.9629 116.041 31.5332 117.658 30.5488C119.287 29.5527 121.191 29.0547 123.371 29.0547C126.406 29.0547 128.779 29.7812 130.49 31.2344C132.201 32.6758 133.215 34.7793 133.531 37.5449H128.398C128.164 36.0801 127.643 35.0078 126.834 34.3281C126.037 33.6484 124.936 33.3086 123.529 33.3086C121.736 33.3086 120.371 33.9824 119.434 35.3301C118.496 36.6777 118.021 38.6816 118.01 41.3418V42.9766C118.01 45.6602 118.52 47.6875 119.539 49.0586C120.559 50.4297 122.053 51.1152 124.021 51.1152C126.002 51.1152 127.414 50.6934 128.258 49.8496V45.4375H123.459V41.5527H133.531V51.7656ZM148.877 53.0664C147.623 54.5898 145.889 55.3516 143.674 55.3516C141.635 55.3516 140.076 54.7656 138.998 53.5938C137.932 52.4219 137.387 50.7051 137.363 48.4434V35.9805H142.443V48.2676C142.443 50.248 143.346 51.2383 145.15 51.2383C146.873 51.2383 148.057 50.6406 148.701 49.4453V35.9805H153.799V55H149.018L148.877 53.0664ZM162.992 55H157.895V35.9805H162.992V55ZM157.596 31.0586C157.596 30.2969 157.848 29.6699 158.352 29.1777C158.867 28.6855 159.564 28.4395 160.443 28.4395C161.311 28.4395 162.002 28.6855 162.518 29.1777C163.033 29.6699 163.291 30.2969 163.291 31.0586C163.291 31.832 163.027 32.4648 162.5 32.957C161.984 33.4492 161.299 33.6953 160.443 33.6953C159.588 33.6953 158.896 33.4492 158.369 32.957C157.854 32.4648 157.596 31.832 157.596 31.0586ZM166.402 45.3496C166.402 42.3848 167.064 40.0234 168.389 38.2656C169.725 36.5078 171.547 35.6289 173.855 35.6289C175.707 35.6289 177.236 36.3203 178.443 37.7031V28H183.541V55H178.953L178.707 52.9785C177.441 54.5605 175.812 55.3516 173.82 55.3516C171.582 55.3516 169.783 54.4727 168.424 52.7148C167.076 50.9453 166.402 48.4902 166.402 45.3496ZM171.482 45.7188C171.482 47.5 171.793 48.8652 172.414 49.8145C173.035 50.7637 173.938 51.2383 175.121 51.2383C176.691 51.2383 177.799 50.5762 178.443 49.252V41.7461C177.811 40.4219 176.715 39.7598 175.156 39.7598C172.707 39.7598 171.482 41.7461 171.482 45.7188ZM196.232 55.3516C193.443 55.3516 191.17 54.4961 189.412 52.7852C187.666 51.0742 186.793 48.7949 186.793 45.9473V45.4551C186.793 43.5449 187.162 41.8398 187.9 40.3398C188.639 38.8281 189.682 37.668 191.029 36.8594C192.389 36.0391 193.936 35.6289 195.67 35.6289C198.271 35.6289 200.316 36.4492 201.805 38.0898C203.305 39.7305 204.055 42.0566 204.055 45.0684V47.1426H191.943C192.107 48.3848 192.6 49.3809 193.42 50.1309C194.252 50.8809 195.301 51.2559 196.566 51.2559C198.523 51.2559 200.053 50.5469 201.154 49.1289L203.65 51.9238C202.889 53.002 201.857 53.8457 200.557 54.4551C199.256 55.0527 197.814 55.3516 196.232 55.3516ZM195.652 39.7422C194.645 39.7422 193.824 40.082 193.191 40.7617C192.57 41.4414 192.172 42.4141 191.996 43.6797H199.062V43.2754C199.039 42.1504 198.734 41.2832 198.148 40.6738C197.562 40.0527 196.73 39.7422 195.652 39.7422Z" fill="white"/>
</svg>
