<svg id="Warstwa_1" data-name="Warstwa 1" xmlns="http://www.w3.org/2000/svg" viewBox="0 0 204.05 69.21"><defs><style>.cls-1,.cls-2{fill:#ca4747;}.cls-2{fill-rule:evenodd;}.cls-3{fill:#fff;}</style></defs><title>main-logo2</title><path class="cls-1" d="M0,42.23a10,10,0,0,1,10-10H94.3a10,10,0,0,1,10,10V75.31a10,10,0,0,1-10,10H10a10,10,0,0,1-10-10Z" transform="translate(0 -16.1)"/><path class="cls-2" d="M0,18.49l4.35,2c4.34,2.09,13,6.19,21.73,4.85s17.38-8.28,26.07-8.95,17.39,4.76,26.08,4.76,22.45-10.71,26.08-.94v27H0Z" transform="translate(0 -16.1)"/><path d="M34.53,42.68H26.69V64H21.41V42.68H13.68V38.41H34.53ZM45.29,64a5.4,5.4,0,0,1-.51-1.71A6.13,6.13,0,0,1,40,64.35a6.76,6.76,0,0,1-4.64-1.62,5.18,5.18,0,0,1-1.83-4.07A5.36,5.36,0,0,1,35.74,54a11.07,11.07,0,0,1,6.49-1.64h2.33V51.29a3.1,3.1,0,0,0-.68-2.11,2.64,2.64,0,0,0-2.13-.79,3.07,3.07,0,0,0-2,.62A2.09,2.09,0,0,0,39,50.69H33.93a5.11,5.11,0,0,1,1-3.06,6.67,6.67,0,0,1,2.88-2.19A10.4,10.4,0,0,1,42,44.63a8.25,8.25,0,0,1,5.57,1.77,6.17,6.17,0,0,1,2.07,5v8.25a9.06,9.06,0,0,0,.76,4.09V64Zm-4.21-3.53a4.44,4.44,0,0,0,2.08-.5,3.32,3.32,0,0,0,1.4-1.35V55.35H42.67q-3.83,0-4.06,2.64l0,.3a2,2,0,0,0,.67,1.56A2.57,2.57,0,0,0,41.08,60.47ZM58.24,45l.16,2.2a6.64,6.64,0,0,1,5.47-2.55,5.54,5.54,0,0,1,4.5,1.77,8.38,8.38,0,0,1,1.51,5.31V64H64.8V51.84a3.26,3.26,0,0,0-.71-2.34,3.1,3.1,0,0,0-2.33-.74,3.49,3.49,0,0,0-3.22,1.83V64H53.46V45ZM80.65,56.37,78.82,58.2V64H73.74V37h5.08V52l1-1.27L84.68,45h6.1L83.9,52.91,91.38,64H85.54Z" transform="translate(0 -16.1)"/><path class="cls-3" d="M133.53,60.77a9.25,9.25,0,0,1-4,2.65,17.08,17.08,0,0,1-5.77.93,11.57,11.57,0,0,1-5.84-1.44A9.77,9.77,0,0,1,114,58.69a14.87,14.87,0,0,1-1.39-6.48V50.46a15.83,15.83,0,0,1,1.28-6.62,9.53,9.53,0,0,1,3.73-4.29,12.21,12.21,0,0,1,12.83.68,9.29,9.29,0,0,1,3,6.31H128.4a5.1,5.1,0,0,0-1.57-3.21,4.9,4.9,0,0,0-3.3-1,4.68,4.68,0,0,0-4.1,2,10.68,10.68,0,0,0-1.42,6V52q0,4,1.53,6.08A5.24,5.24,0,0,0,124,60.12c2,0,3.39-.43,4.24-1.27V54.44h-4.8V50.55h10.07Zm15.35,1.3a6.39,6.39,0,0,1-5.21,2.28A6,6,0,0,1,139,62.59a7.53,7.53,0,0,1-1.64-5.15V45h5.08V57.27c0,2,.91,3,2.71,3a3.67,3.67,0,0,0,3.55-1.79V45h5.1V64H149ZM163,64H157.9V45H163ZM157.6,40.06a2.52,2.52,0,0,1,.75-1.88,3.31,3.31,0,0,1,4.17,0,2.68,2.68,0,0,1,0,3.78,2.87,2.87,0,0,1-2.06.74,2.93,2.93,0,0,1-2.07-.74A2.51,2.51,0,0,1,157.6,40.06Zm8.8,14.29a11.42,11.42,0,0,1,2-7.08,6.5,6.5,0,0,1,5.46-2.64,5.81,5.81,0,0,1,4.59,2.07V37h5.1V64H179l-.24-2a6,6,0,0,1-4.89,2.37,6.49,6.49,0,0,1-5.4-2.64A11.92,11.92,0,0,1,166.4,54.35Zm5.08.37a7.46,7.46,0,0,0,.93,4.09,3.06,3.06,0,0,0,2.71,1.43,3.39,3.39,0,0,0,3.32-2v-7.5a3.34,3.34,0,0,0-3.28-2Q171.49,48.76,171.48,54.72Zm24.75,9.63a9.37,9.37,0,0,1-6.82-2.56A9.19,9.19,0,0,1,186.79,55v-.49a11.4,11.4,0,0,1,1.11-5.12A8.09,8.09,0,0,1,191,45.86a8.82,8.82,0,0,1,4.64-1.23,7.85,7.85,0,0,1,6.13,2.46q2.25,2.46,2.25,7v2.07H191.94a4.78,4.78,0,0,0,1.48,3,4.52,4.52,0,0,0,3.15,1.13,5.47,5.47,0,0,0,4.58-2.13l2.5,2.79a7.68,7.68,0,0,1-3.09,2.54A10.38,10.38,0,0,1,196.23,64.35Zm-.58-15.61a3.21,3.21,0,0,0-2.46,1A5.26,5.26,0,0,0,192,52.68h7.06v-.4a3.75,3.75,0,0,0-.91-2.61A3.28,3.28,0,0,0,195.65,48.74Z" transform="translate(0 -16.1)"/></svg>