<svg width="105" height="70" viewBox="0 0 105 70" fill="none" xmlns="http://www.w3.org/2000/svg">
<path d="M0 26.2317C0 20.7088 4.47715 16.2317 10 16.2317H94.3048C99.8276 16.2317 104.305 20.7088 104.305 26.2317V59.3099C104.305 64.8328 99.8277 69.3099 94.3048 69.3099H10C4.47717 69.3099 0 64.8328 0 59.3099V26.2317Z" fill="#CA4747"/>
<path fill-rule="evenodd" clip-rule="evenodd" d="M0 2.48639L4.34603 4.48677C8.69207 6.58241 17.3841 10.6784 26.0762 9.34484C34.7683 7.91599 43.4603 1.05756 52.1524 0.390763C60.8445 -0.276029 69.5365 5.15357 78.2286 5.15357C86.9207 5.15357 100.683 -5.55888 104.305 4.21388V8.21978V31.2537H99.9588C95.6127 31.2537 86.9207 31.2537 78.2286 31.2537C69.5365 31.2537 60.8445 31.2537 52.1524 31.2537C43.4603 31.2537 34.7683 31.2537 26.0762 31.2537C17.3841 31.2537 8.69207 31.2537 4.34603 31.2537H0V2.48639Z" fill="#CA4747"/>
</svg>
