<svg width="70" height="70" viewBox="0 0 70 70" fill="none" xmlns="http://www.w3.org/2000/svg">
<path d="M49.2714 26.5179C48.2117 26.9786 47.0743 27.2954 45.8794 27.4336C47.1003 26.7137 48.0332 25.5734 48.4767 24.2172C47.3132 24.8952 46.0438 25.3722 44.7218 25.6282C44.1657 25.0453 43.4967 24.5818 42.7556 24.2659C42.0145 23.9501 41.2168 23.7885 40.4112 23.791C37.1488 23.791 34.5054 26.397 34.5054 29.6076C34.5054 30.0626 34.5572 30.506 34.658 30.9322C32.3179 30.821 30.0267 30.2234 27.9305 29.1773C25.8343 28.1311 23.9792 26.6596 22.4836 24.8565C21.9582 25.7407 21.6817 26.7506 21.6831 27.7791C21.6831 29.7948 22.7283 31.58 24.312 32.6195C23.3746 32.5901 22.4572 32.3406 21.6341 31.891V31.963C21.643 33.3148 22.1202 34.6218 22.9844 35.6613C23.8485 36.7008 25.0463 37.4087 26.3737 37.6644C25.5023 37.8948 24.5905 37.9283 23.7045 37.7623C24.0907 38.9252 24.8294 39.9391 25.8181 40.663C26.8067 41.387 27.9963 41.7851 29.2216 41.8022C27.1194 43.4221 24.5385 44.2973 21.8846 44.2901C21.4095 44.2901 20.9402 44.2613 20.4766 44.2095C23.1846 45.9236 26.3247 46.8314 29.5297 46.8269C40.3968 46.8269 46.3372 37.9639 46.3372 30.2756L46.317 29.5212C47.4754 28.7071 48.4764 27.6895 49.2714 26.5179Z" fill="white"/>
<path d="M17.597 12.2746C16.0697 12.2746 14.6048 12.8813 13.5248 13.9614C12.4448 15.0414 11.8381 16.5062 11.8381 18.0336V52.5873C11.8381 54.1147 12.4448 55.5795 13.5248 56.6595C14.6048 57.7396 16.0697 58.3463 17.597 58.3463H52.1508C53.6782 58.3463 55.143 57.7396 56.223 56.6595C57.303 55.5795 57.9098 54.1147 57.9098 52.5873V18.0336C57.9098 16.5062 57.303 15.0414 56.223 13.9614C55.143 12.8813 53.6782 12.2746 52.1508 12.2746H17.597ZM17.597 6.51562H52.1508C55.2056 6.51563 58.1352 7.72912 60.2952 9.88915C62.4553 12.0492 63.6688 14.9788 63.6688 18.0336V52.5873C63.6688 55.6421 62.4553 58.5717 60.2952 60.7318C58.1352 62.8918 55.2056 64.1053 52.1508 64.1053H17.597C14.5423 64.1053 11.6127 62.8918 9.45263 60.7318C7.29259 58.5717 6.0791 55.6421 6.0791 52.5873V18.0336C6.0791 14.9788 7.29259 12.0492 9.45263 9.88915C11.6127 7.72912 14.5423 6.51563 17.597 6.51562Z" fill="white"/>
</svg>
